<?xml version="1.0" encoding="UTF-8" standalone="no"?>
<!-- Generator: Adobe Illustrator 13.0.0, SVG Export Plug-In . SVG Version: 6.00 Build 14948)  -->
<svg
   xmlns:dc="http://purl.org/dc/elements/1.1/"
   xmlns:cc="http://web.resource.org/cc/"
   xmlns:rdf="http://www.w3.org/1999/02/22-rdf-syntax-ns#"
   xmlns:svg="http://www.w3.org/2000/svg"
   xmlns="http://www.w3.org/2000/svg"
   xmlns:sodipodi="http://sodipodi.sourceforge.net/DTD/sodipodi-0.dtd"
   xmlns:inkscape="http://www.inkscape.org/namespaces/inkscape"
   version="1.0"
   id="Ebene_1"
   x="0px"
   y="0px"
   width="100px"
   height="100px"
   viewBox="-20.826 -16.359 100 100"
   enable-background="new -20.826 -16.359 100 100"
   xml:space="preserve"
   sodipodi:version="0.32"
   inkscape:version="0.45pre1"
   sodipodi:docname="module_6.svg"
   inkscape:output_extension="org.inkscape.output.svg.inkscape"
   sodipodi:docbase="V:\Generativvvve Gestaltung\P_2_1_1_04 Arrangement in the Grid\data"
   sodipodi:modified="TRUE"
   inkscape:export-filename="V:\Generativvvve Gestaltung\P_2_1_1_04 Arrangement in the Grid\data\module_6.png"
   inkscape:export-xdpi="600"
   inkscape:export-ydpi="600"><metadata
   id="metadata20"><rdf:RDF><cc:Work
       rdf:about=""><dc:format>image/svg+xml</dc:format><dc:type
         rdf:resource="http://purl.org/dc/dcmitype/StillImage" /></cc:Work></rdf:RDF></metadata><defs
   id="defs18" /><sodipodi:namedview
   inkscape:window-height="480"
   inkscape:window-width="640"
   inkscape:pageshadow="2"
   inkscape:pageopacity="0.0"
   guidetolerance="10.0"
   gridtolerance="10.0"
   objecttolerance="10.0"
   borderopacity="1.0"
   bordercolor="#666666"
   pagecolor="#ffffff"
   id="base" />
<g
   id="g3"
   transform="matrix(0.5429842,0,0,0.5429842,11.335181,7.1156524)"
   style="fill:#ffffff;fill-opacity:1">
	<path
   d="M -3.203,95.5 C -28.609,95.5 -49.203,74.905 -49.203,49.5 C -49.203,24.095 -28.609,3.5 -3.203,3.5 C 21.401,3.5 120.877,22.817 122.117,47.114 C 120.873,20.976 19.908,0.166 -6.539,0.166 C -33.785,0.166 -55.873,22.253 -55.873,49.5 C -55.873,76.746 -33.785,98.834 -6.539,98.834 C 19.908,98.834 120.873,78.023 122.117,51.887 C 120.877,76.183 21.4,95.5 -3.203,95.5 z "
   id="path5"
   style="fill:#ffffff;fill-opacity:1" />
	<path
   d="M 4.129,88.166 C -17.226,88.166 -34.537,70.854 -34.537,49.5 C -34.537,28.146 -17.226,10.834 4.129,10.834 C 24.815,10.834 121.092,27.08 122.127,47.509 C 121.086,24.87 23.025,6.834 0.129,6.834 C -23.435,6.834 -42.537,25.936 -42.537,49.5 C -42.537,73.064 -23.435,92.166 0.129,92.166 C 23.025,92.166 121.086,74.13 122.127,51.49 C 121.092,71.92 24.814,88.166 4.129,88.166 z "
   id="path7"
   style="fill:#ffffff;fill-opacity:1" />
	<path
   d="M 11.963,80.333 C -5.066,80.333 -18.871,66.529 -18.871,49.5 C -18.871,32.471 -5.066,18.667 11.963,18.667 C 28.459,18.667 121.313,31.622 122.139,47.913 C 121.309,29.413 26.668,14.667 7.963,14.667 C -11.275,14.667 -26.871,30.262 -26.871,49.5 C -26.871,68.738 -11.275,84.333 7.963,84.333 C 26.668,84.333 121.309,69.588 122.139,51.088 C 121.313,67.379 28.459,80.333 11.963,80.333 z "
   id="path9"
   style="fill:#ffffff;fill-opacity:1" />
	<path
   d="M 15.963,22.667 C 1.143,22.667 -10.871,34.681 -10.871,49.5 C -10.871,64.319 1.143,76.333 15.963,76.333 C 30.781,76.333 122.178,64.319 122.178,49.5 C 122.178,34.681 30.781,22.667 15.963,22.667 z M 20.629,71.666 C 8.387,71.666 -1.537,61.742 -1.537,49.5 C -1.537,37.258 8.387,27.334 20.629,27.334 C 32.871,27.334 122.178,37.258 122.178,49.5 C 122.178,61.742 32.871,71.666 20.629,71.666 z "
   id="path11"
   style="fill:#ffffff;fill-opacity:1" />
	<path
   d="M 24.797,31.5 C 14.856,31.5 6.797,39.559 6.797,49.5 C 6.797,59.441 14.856,67.5 24.797,67.5 C 34.738,67.5 122.18,59.441 122.18,49.5 C 122.18,39.559 34.738,31.5 24.797,31.5 z M 29.129,63.167 C 21.58,63.167 15.461,57.048 15.461,49.5 C 15.461,41.952 21.58,35.833 29.129,35.833 C 36.678,35.833 122.178,41.952 122.178,49.5 C 122.178,57.048 36.678,63.167 29.129,63.167 z "
   id="path13"
   style="fill:#ffffff;fill-opacity:1" />
	<path
   d="M 37.297,55 C 34.26,55 31.797,52.537 31.797,49.5 C 31.797,46.462 34.26,44 37.297,44 C 40.141,44 121.863,46.159 122.149,48.928 C 121.852,43.719 38.163,39.583 32.879,39.583 C 27.402,39.583 22.961,44.023 22.961,49.5 C 22.961,54.977 27.402,59.417 32.879,59.417 C 38.162,59.417 121.852,55.281 122.149,50.072 C 121.863,52.841 40.141,55 37.297,55 z "
   id="path15"
   style="fill:#ffffff;fill-opacity:1" />
</g>
</svg>