<?xml version="1.0" encoding="UTF-8" standalone="no"?>
<!-- Generator: Adobe Illustrator 13.0.0, SVG Export Plug-In . SVG Version: 6.00 Build 14948)  -->
<svg
   xmlns:dc="http://purl.org/dc/elements/1.1/"
   xmlns:cc="http://web.resource.org/cc/"
   xmlns:rdf="http://www.w3.org/1999/02/22-rdf-syntax-ns#"
   xmlns:svg="http://www.w3.org/2000/svg"
   xmlns="http://www.w3.org/2000/svg"
   xmlns:sodipodi="http://sodipodi.sourceforge.net/DTD/sodipodi-0.dtd"
   xmlns:inkscape="http://www.inkscape.org/namespaces/inkscape"
   version="1.0"
   id="Ebene_1"
   x="0px"
   y="0px"
   width="100px"
   height="100px"
   viewBox="-20.826 -16.359 100 100"
   enable-background="new -20.826 -16.359 100 100"
   xml:space="preserve"
   sodipodi:version="0.32"
   inkscape:version="0.45pre1"
   sodipodi:docname="module_2.svg"
   inkscape:output_extension="org.inkscape.output.svg.inkscape"
   sodipodi:docbase="V:\Generativvvve Gestaltung\P_2_1_1_04 Arrangement in the Grid\data"
   sodipodi:modified="TRUE"
   inkscape:export-filename="V:\Generativvvve Gestaltung\P_2_1_1_04 Arrangement in the Grid\data\module_2.png"
   inkscape:export-xdpi="600"
   inkscape:export-ydpi="600"><metadata
   id="metadata18"><rdf:RDF><cc:Work
       rdf:about=""><dc:format>image/svg+xml</dc:format><dc:type
         rdf:resource="http://purl.org/dc/dcmitype/StillImage" /></cc:Work></rdf:RDF></metadata><defs
   id="defs16" /><sodipodi:namedview
   inkscape:window-height="848"
   inkscape:window-width="1107"
   inkscape:pageshadow="2"
   inkscape:pageopacity="0.0"
   guidetolerance="10.0"
   gridtolerance="10.0"
   objecttolerance="10.0"
   borderopacity="1.0"
   bordercolor="#666666"
   pagecolor="#ffffff"
   id="base"
   inkscape:zoom="3.77"
   inkscape:cx="23.806566"
   inkscape:cy="34.004118"
   inkscape:window-x="198"
   inkscape:window-y="261"
   inkscape:current-layer="Ebene_1" />
<polygon
   points="47.999,136.5 47.999,-42.499 52,-42.499 52,136.5 47.999,136.5 "
   id="polygon3"
   transform="matrix(0.4384556,0,0,0.4384556,8.797169,12.63107)"
   style="fill:#ffffff;fill-opacity:1"
   inkscape:export-filename="V:\Generativvvve Gestaltung\P_2_1_1_04 Arrangement in the Grid\data\module_2.png"
   inkscape:export-xdpi="600"
   inkscape:export-ydpi="600" />
<path
   d="M 25.458046,-9.7314842 C 25.458922,-12.638445 27.813867,-14.992513 30.719951,-14.99339 L 30.719951,-14.99339 C 33.625596,-14.992513 35.980981,-12.638006 35.981419,-9.7314842 L 35.981419,-9.7314842 C 35.980543,-6.8258373 33.625596,-4.4704542 30.719951,-4.4700157 L 30.719951,-4.4700157 C 27.813867,-4.4708925 25.458922,-6.8258373 25.458046,-9.7314842 L 25.458046,-9.7314842 z M 27.211869,-9.7314842 C 27.215377,-7.7943861 28.782416,-6.2273463 30.719513,-6.2242773 L 30.719513,-6.2242773 C 32.65617,-6.226908 34.223651,-7.7943861 34.226721,-9.7314842 L 34.226721,-9.7314842 C 34.223651,-11.66858 32.656609,-13.23606 30.719513,-13.239128 L 30.719513,-13.239128 C 28.782416,-13.23606 27.215377,-11.66902 27.211869,-9.7314842 L 27.211869,-9.7314842 z "
   id="path5"
   style="fill:#ffffff;fill-opacity:1"
   inkscape:export-filename="V:\Generativvvve Gestaltung\P_2_1_1_04 Arrangement in the Grid\data\module_2.png"
   inkscape:export-xdpi="600"
   inkscape:export-ydpi="600" />
<path
   d="M 25.458484,76.20714 C 25.458484,73.300619 27.813428,70.945234 30.719951,70.945234 L 30.719951,70.945234 C 33.625596,70.945234 35.980543,73.300619 35.980543,76.20714 L 35.980543,76.20714 C 35.980543,79.112786 33.625596,81.467732 30.719951,81.468609 L 30.719951,81.468609 C 27.813428,81.467732 25.458484,79.112786 25.458484,76.20714 L 25.458484,76.20714 z M 27.211869,76.20714 C 27.215377,78.143799 28.783293,79.710839 30.719951,79.714346 L 30.719951,79.714346 C 32.656609,79.710839 34.223651,78.143799 34.227159,76.20714 L 34.227159,76.20714 C 34.223651,74.269167 32.656609,72.702564 30.719951,72.699495 L 30.719951,72.699495 C 28.783293,72.702564 27.215377,74.269167 27.211869,76.20714 L 27.211869,76.20714 z "
   id="path7"
   style="fill:#ffffff;fill-opacity:1"
   inkscape:export-filename="V:\Generativvvve Gestaltung\P_2_1_1_04 Arrangement in the Grid\data\module_2.png"
   inkscape:export-xdpi="600"
   inkscape:export-ydpi="600" />
<polygon
   points="18,48.998 18,44.998 81.5,44.998 81.5,48.998 18,48.998 "
   id="polygon9"
   transform="matrix(0.4384556,0,0,0.4384556,8.797169,12.63107)"
   style="fill:#ffffff;fill-opacity:1"
   inkscape:export-filename="V:\Generativvvve Gestaltung\P_2_1_1_04 Arrangement in the Grid\data\module_2.png"
   inkscape:export-xdpi="600"
   inkscape:export-ydpi="600" />
<path
   d="M 43.569333,33.237609 C 43.570209,30.331086 45.925156,27.97658 48.831239,27.975703 L 48.831239,27.975703 C 51.737323,27.97658 54.092269,30.331086 54.093145,33.237609 L 54.093145,33.237609 C 54.092269,36.143256 51.737323,38.498638 48.831239,38.498638 L 48.831239,38.498638 L 48.831239,37.622606 L 48.831239,36.745255 C 50.768336,36.741309 52.334939,35.174707 52.338883,33.237609 L 52.338883,33.237609 C 52.334939,31.30095 50.768336,29.733033 48.831239,29.729964 L 48.831239,29.729964 C 46.894142,29.732595 45.32754,31.300512 45.324034,33.237609 L 45.324034,33.237609 C 45.32754,35.174268 46.895459,36.741309 48.831239,36.745255 L 48.831239,36.745255 L 48.831239,37.622606 L 48.831239,38.498638 C 45.925156,38.498202 43.570209,36.143256 43.569333,33.237609 L 43.569333,33.237609 z "
   id="path11"
   style="fill:#ffffff;fill-opacity:1"
   inkscape:export-filename="V:\Generativvvve Gestaltung\P_2_1_1_04 Arrangement in the Grid\data\module_2.png"
   inkscape:export-xdpi="600"
   inkscape:export-ydpi="600" />
<path
   d="M 7.7005911,33.23717 C 7.7014684,30.330648 10.055976,27.976142 12.962059,27.975703 L 12.962059,27.975703 C 15.868582,27.97658 18.223088,30.331086 18.223526,33.23717 L 18.223526,33.23717 C 18.222649,36.142816 15.868582,38.497762 12.962059,38.498638 L 12.962059,38.498638 L 12.962059,37.621729 L 12.962059,36.745255 C 14.899594,36.74087 16.466199,35.174268 16.469704,33.23717 L 16.469704,33.23717 C 16.466199,31.300512 14.899594,29.733033 12.962059,29.729525 L 12.962059,29.729525 C 11.024964,29.733033 9.458359,31.300512 9.454414,33.23717 L 9.454414,33.23717 C 9.457921,35.174268 11.024524,36.74087 12.962059,36.745255 L 12.962059,36.745255 L 12.962059,37.621729 L 12.962059,38.498638 C 10.055538,38.497762 7.7014684,36.142816 7.7005911,33.23717 L 7.7005911,33.23717 z "
   id="path13"
   style="fill:#ffffff;fill-opacity:1"
   inkscape:export-filename="V:\Generativvvve Gestaltung\P_2_1_1_04 Arrangement in the Grid\data\module_2.png"
   inkscape:export-xdpi="600"
   inkscape:export-ydpi="600" />
</svg>