<?xml version="1.0" encoding="UTF-8" standalone="no"?>
<!-- Generator: Adobe Illustrator 13.0.0, SVG Export Plug-In . SVG Version: 6.00 Build 14948)  -->
<svg
   xmlns:dc="http://purl.org/dc/elements/1.1/"
   xmlns:cc="http://web.resource.org/cc/"
   xmlns:rdf="http://www.w3.org/1999/02/22-rdf-syntax-ns#"
   xmlns:svg="http://www.w3.org/2000/svg"
   xmlns="http://www.w3.org/2000/svg"
   xmlns:sodipodi="http://sodipodi.sourceforge.net/DTD/sodipodi-0.dtd"
   xmlns:inkscape="http://www.inkscape.org/namespaces/inkscape"
   version="1.1"
   id="Ebene_1"
   x="0px"
   y="0px"
   width="50px"
   height="50px"
   viewBox="0 0 50 50"
   enable-background="new 0 0 50 50"
   xml:space="preserve"
   sodipodi:version="0.32"
   inkscape:version="0.45pre1"
   sodipodi:docname="module_5.svg"
   inkscape:output_extension="org.inkscape.output.svg.inkscape"
   sodipodi:docbase="V:\Generativvvve Gestaltung\P_2_1_1_04 Arrangement in the Grid\data"
   sodipodi:modified="TRUE"
   inkscape:export-filename="V:\Generativvvve Gestaltung\P_2_1_1_04 Arrangement in the Grid\data\module_5.png"
   inkscape:export-xdpi="600"
   inkscape:export-ydpi="600"><metadata
   id="metadata8"><rdf:RDF><cc:Work
       rdf:about=""><dc:format>image/svg+xml</dc:format><dc:type
         rdf:resource="http://purl.org/dc/dcmitype/StillImage" /></cc:Work></rdf:RDF></metadata><defs
   id="defs6" /><sodipodi:namedview
   inkscape:window-height="480"
   inkscape:window-width="640"
   inkscape:pageshadow="2"
   inkscape:pageopacity="0.0"
   guidetolerance="10.0"
   gridtolerance="10.0"
   objecttolerance="10.0"
   borderopacity="1.0"
   bordercolor="#666666"
   pagecolor="#ffffff"
   id="base" />
<path
   d="M 48.104371,48.760886 C 37.802803,44.713879 31.012625,34.403065 21.239561,29.163545 C 20.195356,28.64571 19.128389,28.223546 18.00914,27.942934 C 17.10933,27.579098 16.220192,27.256875 15.325006,26.979107 C 12.643363,26.148296 9.9019684,25.703371 7.0435633,26.066495 C 5.9812188,26.245034 4.9306122,26.557656 3.8892524,27.05095 C 2.5089523,28.021534 1.6742287,28.537946 1.5045807,28.368299 C 1.3345771,28.198295 1.8513449,27.363927 2.9492547,26.107751 C 3.8522641,25.349849 4.6066103,25.098401 5.6124047,24.595502 C 9.0074934,23.966704 12.025233,24.595502 15.011673,25.569999 C 16.008577,25.895424 17.001924,26.259971 18.016253,26.641234 C 18.93918,27.009695 19.835787,27.396291 20.720304,27.772576 C 23.719548,29.121577 30.760466,33.816233 33.778559,34.822383 C 33.023858,31.049943 27.491989,24.343343 26.388033,20.744107 C 25.962669,19.738313 25.557933,18.727184 25.248157,17.692937 C 24.82457,16.596449 24.42268,15.507788 24.107924,14.407033 C 23.477703,12.205168 23.189266,9.9499561 23.804905,7.5318524 C 24.000873,6.6402241 24.294644,5.7770476 24.712895,4.9551272 C 25.131146,4.1332067 25.673165,3.3518315 26.365627,2.6241597 C 27.660924,1.554347 28.495293,1.0375791 28.664941,1.2072271 C 28.834588,1.3768751 28.317822,2.2115987 27.291754,3.5506429 C 26.612452,4.5429219 26.116313,5.5657881 25.763502,6.6117713 C 25.41567,7.6591773 25.211524,8.7300571 25.122255,9.8318779 C 25.139681,11.035062 25.273052,12.211926 25.494626,13.369941 C 25.716912,14.529023 26.026687,15.668189 26.401192,16.800596 C 26.750446,17.88997 27.146291,18.944489 27.579836,19.970556 C 32.521316,29.876279 40.317646,38.175149 47.104267,46.966959 C 47.634906,47.744066 47.968155,48.33979 48.104371,48.760886 z "
   id="path3"
   style="fill:#ffffff;fill-opacity:1" />
</svg>