<?xml version="1.0" encoding="UTF-8" standalone="no"?>
<!-- Generator: Adobe Illustrator 14.0.0, SVG Export Plug-In . SVG Version: 6.00 Build 43363)  -->
<svg
   xmlns:dc="http://purl.org/dc/elements/1.1/"
   xmlns:cc="http://web.resource.org/cc/"
   xmlns:rdf="http://www.w3.org/1999/02/22-rdf-syntax-ns#"
   xmlns:svg="http://www.w3.org/2000/svg"
   xmlns="http://www.w3.org/2000/svg"
   xmlns:sodipodi="http://sodipodi.sourceforge.net/DTD/sodipodi-0.dtd"
   xmlns:inkscape="http://www.inkscape.org/namespaces/inkscape"
   version="1.1"
   id="Ebene_1"
   inkscape:export-ydpi="600"
   inkscape:version="0.45pre1"
   sodipodi:docname="genges.svg"
   inkscape:export-xdpi="600"
   sodipodi:docbase="C:\Documents and Settings\Roman\My Documents\My Dropbox"
   sodipodi:version="0.32"
   inkscape:export-filename="V:\Generativvvve Gestaltung\P_2_1_1_04 Arrangement in the Grid\data\module_7.png"
   inkscape:output_extension="org.inkscape.output.svg.inkscape"
   x="0px"
   y="0px"
   width="100px"
   height="100px"
   viewBox="0 0 100 100"
   enable-background="new 0 0 100 100"
   xml:space="preserve"
   sodipodi:modified="TRUE"><metadata
   id="metadata18"><rdf:RDF><cc:Work
       rdf:about=""><dc:format>image/svg+xml</dc:format><dc:type
         rdf:resource="http://purl.org/dc/dcmitype/StillImage" /></cc:Work></rdf:RDF></metadata><defs
   id="defs16" />
<sodipodi:namedview
   inkscape:current-layer="Ebene_1"
   inkscape:window-y="44"
   inkscape:window-x="47"
   inkscape:cy="50"
   inkscape:cx="39.38992"
   inkscape:zoom="3.77"
   pagecolor="#ffffff"
   bordercolor="#666666"
   borderopacity="1.0"
   objecttolerance="10.0"
   gridtolerance="10.0"
   guidetolerance="10.0"
   inkscape:pageopacity="0.0"
   inkscape:window-height="927"
   inkscape:pageshadow="2"
   inkscape:window-width="1070"
   id="base">
	</sodipodi:namedview>
<path
   d="M 53.265716,95.890448 C 28.133716,95.890448 7.7607162,75.517448 7.7607162,50.384448 C 7.7607162,25.253448 28.133716,4.8794483 53.265716,4.8794483 C 77.605716,4.8794483 97.482716,23.989448 98.710716,48.025448 C 97.478716,22.168448 76.127716,1.5824483 49.966716,1.5824483 C 23.013716,1.5824483 1.1627162,23.432448 1.1627162,50.385448 C 1.1627162,77.338448 23.013716,99.190448 49.966716,99.190448 C 76.127716,99.190448 97.478716,78.602448 98.710716,52.747448 C 97.482716,76.781448 77.605716,95.890448 53.265716,95.890448 z "
   id="path4"
   style="fill:#ffffff;fill-opacity:1"
   inkscape:export-filename="C:\Documents and Settings\Roman\Desktop\module_7_png.png"
   inkscape:export-xdpi="600"
   inkscape:export-ydpi="600" />
<path
   d="M 60.519716,88.634448 C 39.394716,88.634448 22.268716,71.509448 22.268716,50.384448 C 22.268716,29.259448 39.394716,12.134448 60.519716,12.134448 C 80.984716,12.134448 97.695716,28.205448 98.719716,48.415448 C 97.690716,26.020448 79.211716,8.1784483 56.562716,8.1784483 C 33.251716,8.1784483 14.354716,27.075448 14.354716,50.385448 C 14.354716,73.696448 33.251716,92.592448 56.562716,92.592448 C 79.211716,92.592448 97.690716,74.750448 98.719716,52.355448 C 97.695716,72.564448 80.984716,88.634448 60.519716,88.634448 z "
   id="path6"
   style="fill:#ffffff;fill-opacity:1"
   inkscape:export-filename="C:\Documents and Settings\Roman\Desktop\module_7_png.png"
   inkscape:export-xdpi="600"
   inkscape:export-ydpi="600" />
<path
   d="M 68.268716,80.886448 C 51.423716,80.886448 37.767716,67.230448 37.767716,50.384448 C 37.767716,33.539448 51.423716,19.883448 68.268716,19.883448 C 84.587716,19.883448 97.913716,32.699448 98.730716,48.814448 C 97.909716,30.513448 82.816716,15.926448 64.311716,15.926448 C 45.281716,15.926448 29.853716,31.354448 29.853716,50.384448 C 29.853716,69.415448 45.281716,84.843448 64.311716,84.843448 C 82.816716,84.843448 97.909716,70.257448 98.730716,51.954448 C 97.913716,68.072448 84.587716,80.886448 68.268716,80.886448 z "
   id="path8"
   style="fill:#ffffff;fill-opacity:1"
   inkscape:export-filename="C:\Documents and Settings\Roman\Desktop\module_7_png.png"
   inkscape:export-xdpi="600"
   inkscape:export-ydpi="600" />
<path
   d="M 72.225716,23.840448 C 57.565716,23.840448 45.681716,35.724448 45.681716,50.384448 C 45.681716,65.044448 57.565716,76.929448 72.225716,76.929448 C 86.885716,76.929448 98.770716,65.044448 98.770716,50.384448 C 98.770716,35.725448 86.885716,23.840448 72.225716,23.840448 z M 76.841716,72.312448 C 64.731716,72.312448 54.913716,62.496448 54.913716,50.384448 C 54.913716,38.274448 64.730716,28.457448 76.841716,28.457448 C 88.952716,28.457448 98.769716,38.274448 98.769716,50.384448 C 98.769716,62.496448 88.952716,72.312448 76.841716,72.312448 z "
   id="path10"
   style="fill:#ffffff;fill-opacity:1"
   inkscape:export-filename="C:\Documents and Settings\Roman\Desktop\module_7_png.png"
   inkscape:export-xdpi="600"
   inkscape:export-ydpi="600" />
<path
   d="M 80.964716,32.579448 C 71.130716,32.579448 63.157716,40.551448 63.157716,50.385448 C 63.157716,60.220448 71.130716,68.192448 80.964716,68.192448 C 90.798716,68.192448 98.771716,60.220448 98.771716,50.385448 C 98.771716,40.551448 90.798716,32.579448 80.964716,32.579448 z M 85.250716,63.905448 C 77.783716,63.905448 71.730716,57.852448 71.730716,50.384448 C 71.730716,42.918448 77.783716,36.864448 85.250716,36.864448 C 92.717716,36.864448 98.771716,42.917448 98.771716,50.384448 C 98.770716,57.852448 92.716716,63.905448 85.250716,63.905448 z "
   id="path12"
   style="fill:#ffffff;fill-opacity:1"
   inkscape:export-filename="C:\Documents and Settings\Roman\Desktop\module_7_png.png"
   inkscape:export-xdpi="600"
   inkscape:export-ydpi="600" />
<path
   d="M 93.330716,55.826448 C 90.325716,55.826448 87.890716,53.390448 87.890716,50.385448 C 87.890716,47.381448 90.326716,44.945448 93.330716,44.945448 C 96.143716,44.945448 98.459716,47.081448 98.742716,49.820448 C 98.447716,44.667448 94.186716,40.576448 88.960716,40.576448 C 83.542716,40.576448 79.149716,44.968448 79.149716,50.386448 C 79.149716,55.805448 83.542716,60.197448 88.960716,60.197448 C 94.187716,60.197448 98.447716,56.107448 98.742716,50.953448 C 98.459716,53.689448 96.143716,55.826448 93.330716,55.826448 z "
   id="path14"
   style="fill:#ffffff;fill-opacity:1"
   inkscape:export-filename="C:\Documents and Settings\Roman\Desktop\module_7_png.png"
   inkscape:export-xdpi="600"
   inkscape:export-ydpi="600" />
</svg>