<?xml version="1.0" encoding="UTF-8" standalone="no"?>
<!-- Generator: Adobe Illustrator 13.0.0, SVG Export Plug-In . SVG Version: 6.00 Build 14948)  -->
<svg
   xmlns:dc="http://purl.org/dc/elements/1.1/"
   xmlns:cc="http://web.resource.org/cc/"
   xmlns:rdf="http://www.w3.org/1999/02/22-rdf-syntax-ns#"
   xmlns:svg="http://www.w3.org/2000/svg"
   xmlns="http://www.w3.org/2000/svg"
   xmlns:sodipodi="http://sodipodi.sourceforge.net/DTD/sodipodi-0.dtd"
   xmlns:inkscape="http://www.inkscape.org/namespaces/inkscape"
   version="1.0"
   id="Ebene_1"
   x="0px"
   y="0px"
   width="100px"
   height="100px"
   viewBox="-20.826 -16.359 100 100"
   enable-background="new -20.826 -16.359 100 100"
   xml:space="preserve"
   sodipodi:version="0.32"
   inkscape:version="0.45pre1"
   sodipodi:docname="C_02.svg"
   inkscape:output_extension="org.inkscape.output.svg.inkscape"
   sodipodi:docbase="V:\Generativvvve Gestaltung\P_3_2_1_02 Dissolving the Font Outlines\data"
   sodipodi:modified="TRUE"
   inkscape:export-filename="V:\Generativvvve Gestaltung\P_3_2_1_02 Dissolving the Font Outlines\data\C_02.png"
   inkscape:export-xdpi="450"
   inkscape:export-ydpi="450"><metadata
   id="metadata18"><rdf:RDF><cc:Work
       rdf:about=""><dc:format>image/svg+xml</dc:format><dc:type
         rdf:resource="http://purl.org/dc/dcmitype/StillImage" /></cc:Work></rdf:RDF></metadata><defs
   id="defs16" /><sodipodi:namedview
   inkscape:window-height="480"
   inkscape:window-width="640"
   inkscape:pageshadow="2"
   inkscape:pageopacity="0.0"
   guidetolerance="10.0"
   gridtolerance="10.0"
   objecttolerance="10.0"
   borderopacity="1.0"
   bordercolor="#666666"
   pagecolor="#ffffff"
   id="base" />
<polygon
   points="19.273,51.471 19.273,48.087 80.836,48.087 80.836,51.471 19.273,51.471 "
   id="polygon3"
   transform="matrix(0.524933,0,0,0.524933,2.1676384,7.4859328)"
   style="fill:#ffffff;fill-opacity:1" />
<polygon
   points="48.362,-33.432 51.746,-33.432 51.746,132.99 48.362,132.99 48.362,-33.432 "
   id="polygon5"
   transform="matrix(0.524933,0,0,0.524933,2.1676384,7.4859328)"
   style="fill:#ffffff;fill-opacity:1" />
<path
   d="M 24.77283,-12.549187 C 24.77283,-14.67464 26.495661,-16.396421 28.621114,-16.397471 L 28.621114,-16.397471 C 30.746043,-16.397471 32.467298,-14.67464 32.467298,-12.549187 L 32.467298,-12.549187 C 32.467298,-10.423733 30.746043,-8.7035275 28.621114,-8.701953 L 28.621114,-8.701953 C 26.495661,-8.7035275 24.77388,-10.424783 24.77283,-12.549187 L 24.77283,-12.549187 z M 26.548678,-12.549187 C 26.549728,-11.405883 27.47676,-10.479375 28.621114,-10.478327 L 28.621114,-10.478327 C 29.764943,-10.479375 30.6904,-11.406408 30.6925,-12.549187 L 30.6925,-12.549187 C 30.6904,-13.693541 29.764419,-14.618998 28.621114,-14.621622 L 28.621114,-14.621622 C 27.475711,-14.618998 26.549728,-13.693541 26.548678,-12.549187 L 26.548678,-12.549187 z "
   id="path7"
   style="fill:#ffffff;fill-opacity:1" />
<path
   d="M 24.535561,79.663699 C 24.535561,77.538246 26.258391,75.816991 28.382795,75.816991 L 28.382795,75.816991 C 30.507724,75.816991 32.229504,77.538246 32.229504,79.663699 L 32.229504,79.663699 C 32.229504,81.788104 30.507724,83.510934 28.382795,83.510934 L 28.382795,83.510934 C 26.257341,83.510934 24.535561,81.788104 24.535561,79.663699 L 24.535561,79.663699 z M 26.311409,79.663699 C 26.313509,80.808578 27.23949,81.733511 28.383845,81.736135 L 28.383845,81.736135 C 29.528723,81.733511 30.454181,80.808054 30.454181,79.663699 L 30.454181,79.663699 C 30.454181,78.519346 29.528723,77.594413 28.383845,77.591789 L 28.383845,77.591789 C 27.23949,77.594413 26.314034,78.519346 26.311409,79.663699 L 26.311409,79.663699 z "
   id="path9"
   style="fill:#ffffff;fill-opacity:1" />
<path
   d="M 43.12134,33.498989 C 43.12134,31.37301 44.843119,29.651755 46.968574,29.650705 L 46.968574,29.650705 C 49.094027,29.650705 50.814233,31.37301 50.815283,33.498989 L 50.815283,33.498989 C 50.814233,35.623393 49.094027,37.346223 46.968574,37.346223 L 46.968574,37.346223 C 44.843119,37.343598 43.12134,35.623393 43.12134,33.498989 L 43.12134,33.498989 z M 44.895613,33.498989 C 44.898238,34.642293 45.824219,35.5688 46.968048,35.570899 L 46.968048,35.570899 C 48.112403,35.5688 49.03786,34.642817 49.03891,33.498989 L 49.03891,33.498989 C 49.03786,32.35411 48.111878,31.428128 46.968048,31.425504 L 46.968048,31.425504 C 45.824219,31.427604 44.898238,32.35411 44.895613,33.498989 L 44.895613,33.498989 z "
   id="path11"
   style="fill:#ffffff;fill-opacity:1" />
<path
   d="M 6.1881005,33.498989 C 6.1881005,31.374585 7.9109307,29.651755 10.035335,29.651755 L 10.035335,29.651755 C 12.159214,29.651755 13.883619,31.37301 13.883619,33.498989 L 13.883619,33.498989 C 13.883619,35.623393 12.16079,37.346223 10.036385,37.346223 L 10.036385,37.346223 C 7.9109307,37.343598 6.1881005,35.623393 6.1881005,33.498989 L 6.1881005,33.498989 z M 7.9639489,33.498989 C 7.9660486,34.642293 8.892031,35.5688 10.036385,35.570899 L 10.036385,35.570899 C 11.179689,35.5688 12.107245,34.642817 12.108821,33.498989 L 12.108821,33.498989 C 12.107771,32.35411 11.180739,31.428128 10.037959,31.427078 L 10.037959,31.427078 C 8.892031,31.427604 7.9649988,32.35411 7.9639489,33.498989 L 7.9639489,33.498989 z "
   id="path13"
   style="fill:#ffffff;fill-opacity:1" />
</svg>