<?xml version="1.0" encoding="UTF-8" standalone="no"?>
<!-- Generator: Adobe Illustrator 13.0.0, SVG Export Plug-In . SVG Version: 6.00 Build 14948)  -->
<svg
   xmlns:dc="http://purl.org/dc/elements/1.1/"
   xmlns:cc="http://web.resource.org/cc/"
   xmlns:rdf="http://www.w3.org/1999/02/22-rdf-syntax-ns#"
   xmlns:svg="http://www.w3.org/2000/svg"
   xmlns="http://www.w3.org/2000/svg"
   xmlns:sodipodi="http://sodipodi.sourceforge.net/DTD/sodipodi-0.dtd"
   xmlns:inkscape="http://www.inkscape.org/namespaces/inkscape"
   version="1.0"
   id="Ebene_1"
   x="0px"
   y="0px"
   width="100px"
   height="100px"
   viewBox="-20.826 -16.359 100 100"
   enable-background="new -20.826 -16.359 100 100"
   xml:space="preserve"
   sodipodi:version="0.32"
   inkscape:version="0.45pre1"
   sodipodi:docname="D_01.svg"
   inkscape:output_extension="org.inkscape.output.svg.inkscape"
   sodipodi:docbase="V:\Generativvvve Gestaltung\P_3_2_1_02 Dissolving the Font Outlines\data"
   sodipodi:modified="TRUE"
   inkscape:export-filename="V:\Generativvvve Gestaltung\P_3_2_1_02 Dissolving the Font Outlines\data\D_01.png"
   inkscape:export-xdpi="450"
   inkscape:export-ydpi="450"><metadata
   id="metadata8"><rdf:RDF><cc:Work
       rdf:about=""><dc:format>image/svg+xml</dc:format><dc:type
         rdf:resource="http://purl.org/dc/dcmitype/StillImage" /></cc:Work></rdf:RDF></metadata><defs
   id="defs6" /><sodipodi:namedview
   inkscape:window-height="480"
   inkscape:window-width="640"
   inkscape:pageshadow="2"
   inkscape:pageopacity="0.0"
   guidetolerance="10.0"
   gridtolerance="10.0"
   objecttolerance="10.0"
   borderopacity="1.0"
   bordercolor="#666666"
   pagecolor="#ffffff"
   id="base" />
<path
   clip-rule="evenodd"
   d="M 42.224856,-8.250385 C 37.389377,-7.7143375 42.556432,-4.7445243 40.579136,-3.3121172 C 36.532807,-2.8744372 38.123265,-8.9710095 39.755723,-9.8972113 C 51.590765,-10.335996 47.149861,4.0952845 39.755723,4.0952845 C 33.296627,4.0952845 29.409455,-2.562756 31.526013,-9.8972113 C 34.273671,-19.428908 51.685817,-18.444128 53.749323,-6.6046641 C 55.900145,5.7432159 48.970212,6.3798413 40.579136,10.681484 C 48.813266,15.445121 50.370567,30.608079 65.272685,27.966526 C 76.43684,25.988124 77.600671,3.9516017 62.803551,5.7432159 C 45.935189,7.7846171 64.999688,31.261283 66.919511,13.975136 C 65.409736,9.0125525 62.278556,16.329323 61.15783,13.975136 C 65.106897,2.8982961 73.455974,21.069751 63.626964,23.029363 C 58.517382,24.047301 52.209707,17.80594 54.572736,9.8591759 C 57.96144,-1.5403975 79.879701,4.9010135 75.973739,21.382537 C 73.408448,32.205169 61.35346,32.689269 51.28019,26.320805 C 47.005073,44.299946 49.737257,61.730882 65.272685,59.245169 C 73.863812,57.87134 79.055183,39.087576 66.094993,38.66758 C 50.876772,38.175742 60.505731,60.333843 67.741819,49.369739 C 67.703135,46.115876 61.018569,49.507895 61.980138,45.252674 C 69.747852,37.847483 73.321133,55.646467 62.802446,55.13142 C 52.155549,54.60753 54.926417,34.394674 67.741819,36.199551 C 74.005284,37.081543 77.959878,44.86252 75.972634,52.662286 C 71.896463,68.649762 45.406878,63.051659 47.16423,43.608058 C 39.972352,52.006871 23.984876,52.166028 23.292988,67.4793 C 22.596679,82.890939 49.101737,87.390422 47.16423,69.125021 C 46.718813,64.929482 43.072585,61.413674 40.579136,60.894206 C 23.602459,57.352977 31.464119,82.636731 40.579136,71.594154 C 40.678608,66.821675 36.577017,69.988223 34.817455,68.301608 C 39.711513,58.307915 47.377543,74.029026 38.933415,76.532422 C 26.734744,80.269281 24.473397,60.987047 34.817455,58.423967 C 55.359676,53.335385 53.266328,91.225648 29.878082,82.295208 C 19.156028,78.199143 19.089713,62.630557 29.054669,53.485699 C 18.140301,49.433844 14.047552,43.774951 2.7153987,47.724018 C -8.694122,51.700716 -8.212232,74.082078 8.4770795,70.771847 C 13.099245,69.854487 16.552054,64.927272 15.885586,60.070793 C 14.624493,50.876198 0.2982116,51.452034 1.0696778,60.070793 C 1.4333059,64.12928 5.9471567,67.173145 9.3015978,63.36334 C 10.25322,57.722131 3.7598622,61.398201 6.0090508,57.601659 C 11.737574,54.539004 13.589977,61.988406 10.947319,65.831368 C -7.095927,77.139206 -5.264524,42.661962 13.416452,51.838873 C 21.326744,55.72494 21.093536,76.690473 2.7165039,73.239875 C -12.818924,70.322009 -8.358125,46.393294 5.1856378,44.431471 C 12.966615,43.303008 19.582656,48.617062 25.763227,49.370844 C 35.513764,50.55678 50.308673,45.406304 48.811056,27.968736 C 46.632603,2.630825 5.2862157,7.2242541 15.063279,35.377243 C 19.289764,47.546072 43.260478,47.025499 43.049375,30.438976 C 42.876955,16.870897 20.362964,16.478532 20.001546,28.793255 C 19.959547,30.242241 20.304385,37.446276 26.58664,38.670896 C 37.082117,40.716718 40.500663,24.688347 28.233466,25.500708 C 24.366188,29.821139 33.894569,30.088611 30.703705,33.731523 C 12.788669,29.699562 40.258612,12.453203 38.112212,32.908109 C 36.688647,46.466241 15.420275,41.913706 18.355825,26.323016 C 20.585119,14.489078 41.111867,13.393773 43.872788,26.323016 C 47.023862,41.082556 30.526865,51.601244 19.179238,43.609163 C 10.95395,37.814325 9.3137556,14.368605 -4.692003,14.796338 C -14.92222,15.109125 -20.240694,35.523137 -6.337724,36.198446 C 4.1555426,36.706862 2.975133,22.209266 -3.0451769,21.381432 C -7.724816,21.621272 -10.387369,26.986167 -7.161137,30.43566 C -1.9929766,30.746236 -6.701352,26.071018 -3.0451769,25.497392 C -1.1750898,25.838915 -0.3594135,33.060634 -6.337724,32.082486 C -10.525525,31.397229 -13.170394,20.117023 -3.8696952,19.735711 C 5.9604197,19.332294 6.1538389,38.324952 -5.5154163,38.666475 C -21.667575,39.141733 -19.148705,13.09867 -5.5154163,12.327204 C 4.122385,11.78121 3.0569217,16.106062 10.123906,25.497392 C 12.514567,15.258334 24.191558,12.106154 24.117506,-0.84187802 C 24.083243,-6.7439259 20.794012,-11.592668 15.885586,-12.36524 C 2.9419754,-14.404431 0.5435777,7.1126236 12.593039,5.7421106 C 19.003503,5.0137493 21.152114,-5.7480935 13.415347,-5.7812511 C 8.0217155,-4.3632122 14.504021,-1.0352972 12.593039,0.80384278 C 8.2040822,1.4415734 7.8990325,-2.9142263 9.3004926,-5.7812511 C 17.335677,-16.547515 25.186285,4.4058604 15.062173,7.3889367 C 0.5137359,11.674 -3.1479654,-16.126414 15.885586,-14.012066 C 25.173022,-12.97976 28.898828,0.69663329 22.47068,9.0357628 C 34.914717,8.0111938 52.419705,10.301277 52.92591,-3.3110119 C 53.477431,-18.155657 29.581874,-17.714662 32.348321,-3.3110119 C 34.926875,10.117805 54.752893,-2.7031231 42.224856,-8.250385 z "
   id="path3"
   style="fill-rule:evenodd;fill:#ffffff;fill-opacity:1" />
</svg>