<?xml version="1.0" encoding="UTF-8" standalone="no"?>
<!-- Generator: Adobe Illustrator 13.0.0, SVG Export Plug-In . SVG Version: 6.00 Build 14948)  -->
<svg
   xmlns:dc="http://purl.org/dc/elements/1.1/"
   xmlns:cc="http://web.resource.org/cc/"
   xmlns:rdf="http://www.w3.org/1999/02/22-rdf-syntax-ns#"
   xmlns:svg="http://www.w3.org/2000/svg"
   xmlns="http://www.w3.org/2000/svg"
   xmlns:sodipodi="http://sodipodi.sourceforge.net/DTD/sodipodi-0.dtd"
   xmlns:inkscape="http://www.inkscape.org/namespaces/inkscape"
   version="1.0"
   id="Ebene_1"
   x="0px"
   y="0px"
   width="100px"
   height="100px"
   viewBox="-20.826 -16.359 100 100"
   enable-background="new -20.826 -16.359 100 100"
   xml:space="preserve"
   sodipodi:version="0.32"
   inkscape:version="0.45pre1"
   sodipodi:docname="D_02.svg"
   inkscape:output_extension="org.inkscape.output.svg.inkscape"
   sodipodi:docbase="V:\Generativvvve Gestaltung\P_3_2_1_02 Dissolving the Font Outlines\data"
   sodipodi:modified="TRUE"
   inkscape:export-filename="V:\Generativvvve Gestaltung\P_3_2_1_02 Dissolving the Font Outlines\data\D_02.png"
   inkscape:export-xdpi="450"
   inkscape:export-ydpi="450"><metadata
   id="metadata34"><rdf:RDF><cc:Work
       rdf:about=""><dc:format>image/svg+xml</dc:format><dc:type
         rdf:resource="http://purl.org/dc/dcmitype/StillImage" /></cc:Work></rdf:RDF></metadata><defs
   id="defs32" /><sodipodi:namedview
   inkscape:window-height="480"
   inkscape:window-width="640"
   inkscape:pageshadow="2"
   inkscape:pageopacity="0.0"
   guidetolerance="10.0"
   gridtolerance="10.0"
   objecttolerance="10.0"
   borderopacity="1.0"
   bordercolor="#666666"
   pagecolor="#ffffff"
   id="base" />
<ellipse
   cx="49.792"
   cy="51.616001"
   rx="2.4719999"
   ry="2.4909999"
   id="ellipse3"
   sodipodi:cx="49.792"
   sodipodi:cy="51.616001"
   sodipodi:rx="2.4719999"
   sodipodi:ry="2.4909999"
   transform="matrix(1.6019346,0,0,1.6019346,-51.108701,-46.750155)"
   style="fill:#ffffff;fill-opacity:1" />
<g
   id="XMLID_2_"
   transform="matrix(1.6019346,0,0,1.6019346,-51.108701,-46.750155)"
   style="fill:#ffffff;fill-opacity:1">
	<g
   id="g6"
   style="fill:#ffffff;fill-opacity:1">
		<path
   d="M 57.174,31.646 C 53.438,34.113 49.493,39.695 50.349,44.475 C 49.035,42.078 48.136,34.138 41.969,32.968 C 42.823,29.767 45.927,30.204 48.19,30.989 C 47.238,27.102 45.268,23.246 49.664,19.213 C 53.433,22.87 52.696,26.651 50.417,30.478 C 52.691,31.589 54.837,28.152 57.174,31.646 z "
   id="path8"
   style="fill:#ffffff;fill-opacity:1" />
	</g>
</g>
<g
   id="g10"
   transform="matrix(1.6019346,0,0,1.6019346,-51.108701,-46.750155)"
   style="fill:#ffffff;fill-opacity:1">
	<path
   d="M 40.667,44.859 C 37.844,42.767 37.158,37.833 37.902,34.647 C 34.934,33.98 35.507,36.878 33.754,37.432 C 33.059,34.264 31.571,31.893 27.762,31.861 C 27.443,36.205 30.399,37.252 32.832,38.823 C 31.248,39.548 29.39,40.884 30.527,43.001 C 34.365,40.516 38.784,44.26 40.667,44.859 z M 65.093,37.432 C 65.052,35.616 64.53,34.286 62.328,34.647 C 63.149,38.877 60.446,43.568 59.561,45.788 C 61.181,43.148 65.647,40.875 69.24,43.003 C 69.763,40.311 68.168,39.751 66.934,38.825 C 70.239,37.975 72.025,35.595 72.466,31.863 C 67.41,31.102 67.754,35.78 65.093,37.432 z "
   id="path12"
   style="fill:#ffffff;fill-opacity:1" />
	<path
   d="M 72.467,31.861 C 72.026,35.593 70.239,37.974 66.935,38.823 C 68.168,39.749 69.764,40.309 69.241,43.001 C 65.648,40.874 61.182,43.146 59.562,45.786 C 60.445,43.567 63.15,38.877 62.329,34.645 C 64.53,34.284 65.053,35.615 65.094,37.43 C 67.754,35.78 67.41,31.102 72.467,31.861 z "
   id="path14"
   style="fill:#ffffff;fill-opacity:1" />
	<path
   d="M 30.526,43.002 C 29.389,40.884 31.247,39.549 32.831,38.824 C 30.398,37.252 27.442,36.206 27.761,31.862 C 31.571,31.894 33.058,34.264 33.753,37.433 C 35.507,36.878 34.934,33.98 37.901,34.648 C 37.157,37.834 37.843,42.767 40.666,44.86 C 38.784,44.26 34.365,40.516 30.526,43.002 z "
   id="path16"
   style="fill:#ffffff;fill-opacity:1" />
</g>
<g
   id="XMLID_1_"
   transform="matrix(1.6019346,0,0,1.6019346,-51.108701,-46.750155)"
   style="fill:#ffffff;fill-opacity:1">
	<g
   id="g19"
   style="fill:#ffffff;fill-opacity:1">
		<path
   d="M 43.031,69.19 C 46.766,66.722 50.711,61.14 49.855,56.361 C 51.169,58.758 52.069,66.698 58.236,67.868 C 57.382,71.069 54.276,70.632 52.013,69.847 C 52.964,73.734 54.936,77.589 50.54,81.622 C 46.77,77.966 47.508,74.185 49.786,70.356 C 47.513,69.246 45.367,72.684 43.031,69.19 z "
   id="path21"
   style="fill:#ffffff;fill-opacity:1" />
	</g>
</g>
<g
   id="g23"
   transform="matrix(1.6019346,0,0,1.6019346,-51.108701,-46.750155)"
   style="fill:#ffffff;fill-opacity:1">
	<path
   d="M 59.537,55.977 C 62.361,58.071 63.047,63.003 62.303,66.191 C 65.271,66.856 64.698,63.958 66.451,63.405 C 67.146,66.574 68.633,68.944 72.442,68.976 C 72.761,64.632 69.806,63.585 67.373,62.014 C 68.958,61.287 70.814,59.951 69.678,57.835 C 65.839,60.32 61.42,56.575 59.537,55.977 z M 35.111,63.403 C 35.152,65.219 35.675,66.549 37.876,66.188 C 37.055,61.958 39.758,57.266 40.643,55.048 C 39.022,57.687 34.556,59.96 30.964,57.833 C 30.441,60.524 32.036,61.084 33.27,62.01 C 29.965,62.86 28.18,65.24 27.738,68.972 C 32.793,69.734 32.45,65.056 35.111,63.403 z "
   id="path25"
   style="fill:#ffffff;fill-opacity:1" />
	<path
   d="M 27.738,68.975 C 28.18,65.243 29.965,62.862 33.27,62.012 C 32.037,61.086 30.441,60.528 30.964,57.835 C 34.555,59.962 39.022,57.69 40.643,55.05 C 39.761,57.27 37.056,61.959 37.876,66.191 C 35.675,66.551 35.152,65.221 35.111,63.407 C 32.45,65.056 32.793,69.734 27.738,68.975 z "
   id="path27"
   style="fill:#ffffff;fill-opacity:1" />
	<path
   d="M 69.678,57.834 C 70.815,59.951 68.958,61.287 67.373,62.012 C 69.807,63.585 72.764,64.631 72.442,68.975 C 68.632,68.944 67.146,66.574 66.451,63.404 C 64.696,63.958 65.27,66.856 62.303,66.188 C 63.047,63.003 62.362,58.069 59.537,55.977 C 61.42,56.575 65.839,60.32 69.678,57.834 z "
   id="path29"
   style="fill:#ffffff;fill-opacity:1" />
</g>
</svg>