<?xml version="1.0" encoding="UTF-8" standalone="no"?>
<!-- Generator: Adobe Illustrator 13.0.2, SVG Export Plug-In . SVG Version: 6.00 Build 14948)  -->
<svg
   xmlns:dc="http://purl.org/dc/elements/1.1/"
   xmlns:cc="http://web.resource.org/cc/"
   xmlns:rdf="http://www.w3.org/1999/02/22-rdf-syntax-ns#"
   xmlns:svg="http://www.w3.org/2000/svg"
   xmlns="http://www.w3.org/2000/svg"
   xmlns:sodipodi="http://sodipodi.sourceforge.net/DTD/sodipodi-0.dtd"
   xmlns:inkscape="http://www.inkscape.org/namespaces/inkscape"
   version="1.1"
   id="Ebene_1"
   x="0px"
   y="0px"
   width="100px"
   height="100px"
   viewBox="0 0 100 100"
   enable-background="new 0 0 100 100"
   xml:space="preserve"
   sodipodi:version="0.32"
   inkscape:version="0.45pre1"
   sodipodi:docname="arrow.svg"
   inkscape:output_extension="org.inkscape.output.svg.inkscape"
   sodipodi:docbase="C:\Documents and Settings\Roman\Desktop"
   inkscape:export-filename="C:\Documents and Settings\Roman\Desktop\arrow.png"
   inkscape:export-xdpi="86"
   inkscape:export-ydpi="86"
   sodipodi:modified="TRUE"><metadata
   id="metadata16"><rdf:RDF><cc:Work
       rdf:about=""><dc:format>image/svg+xml</dc:format><dc:type
         rdf:resource="http://purl.org/dc/dcmitype/StillImage" /></cc:Work></rdf:RDF></metadata><defs
   id="defs14" /><sodipodi:namedview
   inkscape:window-height="480"
   inkscape:window-width="640"
   inkscape:pageshadow="2"
   inkscape:pageopacity="0.0"
   guidetolerance="10.0"
   gridtolerance="10.0"
   objecttolerance="10.0"
   borderopacity="1.0"
   bordercolor="#666666"
   pagecolor="#ffffff"
   id="base" />
<g
   id="g3"
   transform="translate(1.5873016,37.037037)"
   inkscape:export-filename="C:\Documents and Settings\Roman\Desktop\arrow.png"
   inkscape:export-xdpi="86"
   inkscape:export-ydpi="86">
	<g
   id="g5">
		<path
   d="M 0,-1.799 C 0.994,-1.799 1.801,-0.991 1.801,0 L 1.801,0 C 1.801,0.992 0.994,1.799 0,1.799 L 0,1.799 C -0.99,1.799 -1.798,0.991 -1.798,0 L -1.798,0 C -1.798,-0.992 -0.99,-1.799 0,-1.799 L 0,-1.799 z M 7.018,-1.799 C 8.012,-1.799 8.816,-0.991 8.816,0 L 8.816,0 C 8.816,0.992 8.012,1.799 7.018,1.799 L 7.018,1.799 C 6.028,1.799 5.221,0.991 5.221,0 L 5.221,0 C 5.221,-0.992 6.028,-1.799 7.018,-1.799 L 7.018,-1.799 z M 14.037,-1.799 C 15.031,-1.799 15.835,-0.991 15.835,0 L 15.835,0 C 15.835,0.992 15.031,1.799 14.037,1.799 L 14.037,1.799 C 13.043,1.799 12.239,0.991 12.239,0 L 12.239,0 C 12.239,-0.992 13.043,-1.799 14.037,-1.799 L 14.037,-1.799 z M 21.055,-1.799 C 22.045,-1.799 22.852,-0.991 22.852,0 L 22.852,0 C 22.852,0.992 22.044,1.799 21.055,1.799 L 21.055,1.799 C 20.061,1.799 19.257,0.991 19.257,0 L 19.257,0 C 19.257,-0.992 20.062,-1.799 21.055,-1.799 L 21.055,-1.799 z M 28.073,-1.799 C 29.063,-1.799 29.871,-0.991 29.871,0 L 29.871,0 C 29.871,0.992 29.063,1.799 28.073,1.799 L 28.073,1.799 C 27.079,1.799 26.272,0.991 26.272,0 L 26.272,0 C 26.272,-0.992 27.08,-1.799 28.073,-1.799 L 28.073,-1.799 z M 35.092,-1.799 C 36.082,-1.799 36.889,-0.991 36.889,0 L 36.889,0 C 36.889,0.992 36.082,1.799 35.092,1.799 L 35.092,1.799 C 34.098,1.799 33.291,0.991 33.291,0 L 33.291,0 C 33.291,-0.992 34.098,-1.799 35.092,-1.799 L 35.092,-1.799 z M 42.11,-1.799 C 43.1,-1.799 43.907,-0.991 43.907,0 L 43.907,0 C 43.907,0.992 43.099,1.799 42.11,1.799 L 42.11,1.799 C 41.116,1.799 40.309,0.991 40.309,0 L 40.309,0 C 40.309,-0.992 41.117,-1.799 42.11,-1.799 L 42.11,-1.799 z M 49.126,-1.799 C 50.118,-1.799 50.925,-0.991 50.925,0 L 50.925,0 C 50.925,0.992 50.118,1.799 49.126,1.799 L 49.126,1.799 C 48.135,1.799 47.327,0.991 47.327,0 L 47.327,0 C 47.328,-0.992 48.135,-1.799 49.126,-1.799 L 49.126,-1.799 z M 56.143,-1.799 C 57.137,-1.799 57.942,-0.991 57.942,0 L 57.942,0 C 57.942,0.992 57.137,1.799 56.143,1.799 L 56.143,1.799 C 55.155,1.799 54.346,0.991 54.346,0 L 54.346,0 C 54.346,-0.992 55.154,-1.799 56.143,-1.799 L 56.143,-1.799 z M 63.162,-1.799 C 64.156,-1.799 64.955,-0.991 64.955,0 L 64.955,0 C 64.955,0.992 64.156,1.799 63.162,1.799 L 63.162,1.799 C 62.168,1.799 61.363,0.991 61.363,0 L 61.363,0 C 61.363,-0.992 62.168,-1.799 63.162,-1.799 L 63.162,-1.799 z M 70.18,-1.799 C 71.17,-1.799 71.971,-0.991 71.971,0 L 71.971,0 C 71.971,0.992 71.17,1.799 70.18,1.799 L 70.18,1.799 C 69.19,1.799 68.383,0.991 68.383,0 L 68.383,0 C 68.383,-0.992 69.189,-1.799 70.18,-1.799 L 70.18,-1.799 z M 77.199,-1.799 C 78.191,-1.799 78.992,-0.991 78.992,0 L 78.992,0 C 78.992,0.992 78.191,1.799 77.199,1.799 L 77.199,1.799 C 76.205,1.799 75.398,0.991 75.398,0 L 75.398,0 C 75.398,-0.992 76.205,-1.799 77.199,-1.799 L 77.199,-1.799 z M 84.211,-1.799 C 85.207,-1.799 86.008,-0.991 86.008,0 L 86.008,0 C 86.008,0.992 85.207,1.799 84.211,1.799 L 84.211,1.799 C 83.221,1.799 82.42,0.991 82.42,0 L 82.42,0 C 82.42,-0.992 83.221,-1.799 84.211,-1.799 L 84.211,-1.799 z "
   id="path7"
   style="fill:#1a171b" />
	</g>
	<g
   id="g9">
		<path
   d="M 81.408,-9.23 C 81.408,-9.943 81.99,-10.073 82.447,-9.813 L 98.435,-0.104 C 98.628,0.026 98.693,0.154 98.693,0.284 C 98.693,0.414 98.629,0.544 98.435,0.672 L 82.447,10.381 C 81.99,10.641 81.408,10.511 81.408,9.799 L 81.408,-9.23 z "
   id="path11" />
	</g>
</g>
</svg>